# xmcd
#
# Track frame offsets: 
#        150
#        38504
#        64813
#        97754
#        122768
#        152784
#        175532
#        205509
#        232872
#        261544
#        291980
#        320798
#
# Disc length: 4637 seconds
#
# Revision: 2
# Processed by: cddbd v1.5.2PL0 Copyright (c) Steve Scherf et al.
# Submitted via: ExactAudioCopy v1.0b3
#
DISCID=9f121b0c
DTITLE=Various Artist - Masterpiece - The Ultimate Disco Funk Collection (Vol
DTITLE=ume 6)
DYEAR=2008
DGENRE=FUNKY
TTITLE0=Bar-Kays - She Talks To Me With Her Body (Remix)
TTITLE1=Dynasty - Check It Out
TTITLE2=Evan Rogers - Secret Love (Frankie Rodriquez' Extended Masterp
TTITLE2=iece Re-Edit)
TTITLE3=Love Club - Hot Summer Nights
TTITLE4=Maxine Singleton - You Can't Run From Love
TTITLE5=Major Harris - Gotta Make Up Your Mind
TTITLE6=Kathy Buck - Don't Beat Around The Bush (Frankie's Cutting Aro
TTITLE6=und The Bush Re-Edit)
TTITLE7=Thunderflash - Reach Your High Tonight
TTITLE8=Up Front - Infatuation (Frankie Rodriquez' Infatuated Re-Edit)
TTITLE9=Roy Ayers - Fast Money
TTITLE10=Les Femmes - Yes, You Thrill Me
TTITLE11=Pamela Joy - Think Fast
EXTD=
EXTT0=
EXTT1=
EXTT2=
EXTT3=
EXTT4=
EXTT5=
EXTT6=
EXTT7=
EXTT8=
EXTT9=
EXTT10=
EXTT11=
PLAYORDER=
